<svg width="120.517944" height="28.798828" viewBox="0 0 120.518 28.7988" fill="none" xmlns="http://www.w3.org/2000/svg" xmlns:xlink="http://www.w3.org/1999/xlink">
	<desc>
			Created with Pixso.
	</desc>
	<defs/>
	<path id="2000+" d="M10.441 28.3984Q10.0406 28.3984 9.73792 28.1055Q9.43518 27.8027 9.43518 27.4023L9.43518 8.35938L3.95667 12.5586Q3.59534 12.8418 3.21448 12.7637Q2.83362 12.6758 2.56018 12.3145L0.196899 9.23828Q-0.0472412 8.87695 0.0113525 8.45703Q0.0797119 8.03711 0.480103 7.80273L9.67932 0.673828Q9.9137 0.517578 10.1285 0.458984Q10.3531 0.400391 10.6364 0.400391L15.6364 0.400391Q16.0758 0.400391 16.3492 0.683594Q16.6324 0.957031 16.6324 1.39648L16.6324 27.4023Q16.6324 27.8027 16.3492 28.1055Q16.0758 28.3984 15.6364 28.3984L10.441 28.3984ZM32.0015 28.7988Q29.1206 28.7988 27.021 27.9785Q24.9214 27.1582 23.5152 25.7227Q22.1187 24.2773 21.396 22.3633Q20.6734 20.4395 20.5562 18.2422Q20.5171 17.1582 20.4976 15.7812Q20.4781 14.3945 20.4976 12.9785Q20.5171 11.5625 20.5562 10.4395Q20.6734 8.24219 21.4156 6.34766Q22.1578 4.44336 23.5738 3.02734Q24.9996 1.60156 27.0992 0.800781Q29.1988 0 32.0015 0Q34.8335 0 36.9332 0.800781Q39.0328 1.60156 40.4292 3.02734Q41.8355 4.44336 42.5972 6.34766Q43.3589 8.24219 43.4761 10.4395Q43.5152 11.5625 43.5347 12.9785Q43.5542 14.3945 43.5347 15.7812Q43.5152 17.1582 43.4761 18.2422Q43.3589 20.4395 42.6167 22.3633Q41.8746 24.2773 40.4976 25.7227Q39.1207 27.1582 37.021 27.9785Q34.9214 28.7988 32.0015 28.7988ZM32.0015 22.998Q34.0816 22.998 35.0191 21.6602Q35.9566 20.3223 35.9957 18.0371Q36.0738 16.875 36.0933 15.5957Q36.1128 14.3164 36.0933 13.0371Q36.0738 11.7578 35.9957 10.6738Q35.9566 8.47656 35.0191 7.11914Q34.0816 5.76172 32.0015 5.72266Q29.9605 5.76172 29.0132 7.11914Q28.0757 8.47656 27.9976 10.6738Q27.9976 11.7578 27.9781 13.0371Q27.9585 14.3164 27.9781 15.5957Q27.9976 16.875 27.9976 18.0371Q28.0757 20.3223 29.0328 21.6602Q29.9996 22.998 32.0015 22.998ZM58.4015 28.7988Q55.5206 28.7988 53.421 27.9785Q51.3214 27.1582 49.9152 25.7227Q48.5187 24.2773 47.796 22.3633Q47.0734 20.4395 46.9562 18.2422Q46.9171 17.1582 46.8976 15.7812Q46.8781 14.3945 46.8976 12.9785Q46.9171 11.5625 46.9562 10.4395Q47.0734 8.24219 47.8156 6.34766Q48.5578 4.44336 49.9738 3.02734Q51.3996 1.60156 53.4992 0.800781Q55.5988 0 58.4015 0Q61.2335 0 63.3331 0.800781Q65.4328 1.60156 66.8292 3.02734Q68.2355 4.44336 68.9972 6.34766Q69.7589 8.24219 69.8761 10.4395Q69.9152 11.5625 69.9347 12.9785Q69.9542 14.3945 69.9347 15.7812Q69.9152 17.1582 69.8761 18.2422Q69.7589 20.4395 69.0167 22.3633Q68.2746 24.2773 66.8976 25.7227Q65.5206 27.1582 63.421 27.9785Q61.3214 28.7988 58.4015 28.7988ZM58.4015 22.998Q60.4816 22.998 61.4191 21.6602Q62.3566 20.3223 62.3956 18.0371Q62.4738 16.875 62.4933 15.5957Q62.5128 14.3164 62.4933 13.0371Q62.4738 11.7578 62.3956 10.6738Q62.3566 8.47656 61.4191 7.11914Q60.4816 5.76172 58.4015 5.72266Q56.3605 5.76172 55.4132 7.11914Q54.4757 8.47656 54.3976 10.6738Q54.3976 11.7578 54.3781 13.0371Q54.3585 14.3164 54.3781 15.5957Q54.3976 16.875 54.3976 18.0371Q54.4757 20.3223 55.4328 21.6602Q56.3996 22.998 58.4015 22.998ZM84.8015 28.7988Q81.9206 28.7988 79.821 27.9785Q77.7214 27.1582 76.3152 25.7227Q74.9187 24.2773 74.196 22.3633Q73.4734 20.4395 73.3562 18.2422Q73.3171 17.1582 73.2976 15.7812Q73.2781 14.3945 73.2976 12.9785Q73.3171 11.5625 73.3562 10.4395Q73.4734 8.24219 74.2156 6.34766Q74.9578 4.44336 76.3738 3.02734Q77.7996 1.60156 79.8992 0.800781Q81.9988 0 84.8015 0Q87.6335 0 89.7331 0.800781Q91.8328 1.60156 93.2292 3.02734Q94.6355 4.44336 95.3972 6.34766Q96.1589 8.24219 96.2761 10.4395Q96.3152 11.5625 96.3347 12.9785Q96.3542 14.3945 96.3347 15.7812Q96.3152 17.1582 96.2761 18.2422Q96.1589 20.4395 95.4167 22.3633Q94.6746 24.2773 93.2976 25.7227Q91.9206 27.1582 89.821 27.9785Q87.7214 28.7988 84.8015 28.7988ZM84.8015 22.998Q86.8816 22.998 87.8191 21.6602Q88.7566 20.3223 88.7956 18.0371Q88.8738 16.875 88.8933 15.5957Q88.9128 14.3164 88.8933 13.0371Q88.8738 11.7578 88.7956 10.6738Q88.7566 8.47656 87.8191 7.11914Q86.8816 5.76172 84.8015 5.72266Q82.7605 5.76172 81.8132 7.11914Q80.8757 8.47656 80.7976 10.6738Q80.7976 11.7578 80.7781 13.0371Q80.7585 14.3164 80.7781 15.5957Q80.7976 16.875 80.7976 18.0371Q80.8757 20.3223 81.8328 21.6602Q82.7996 22.998 84.8015 22.998ZM108.155 27.0801Q107.715 27.0801 107.432 26.7773Q107.159 26.4746 107.159 26.0742L107.159 18.7598L100.039 18.7598Q99.5999 18.7598 99.2972 18.4863Q98.9945 18.2031 98.9945 17.7539L98.9945 14.834Q98.9945 14.3945 99.2972 14.1016Q99.5999 13.7988 100.039 13.7988L107.159 13.7988L107.159 6.71875Q107.159 6.2793 107.432 6.00586Q107.715 5.72266 108.155 5.72266L111.436 5.72266Q111.836 5.72266 112.139 6.00586Q112.442 6.2793 112.442 6.71875L112.442 13.7988L119.522 13.7988Q119.961 13.7988 120.235 14.1016Q120.518 14.3945 120.518 14.834L120.518 17.7539Q120.518 18.2031 120.235 18.4863Q119.961 18.7598 119.522 18.7598L112.442 18.7598L112.442 26.0742Q112.442 26.4746 112.139 26.7773Q111.836 27.0801 111.436 27.0801L108.155 27.0801Z" fill="#D27722" fill-opacity="1.000000" fill-rule="evenodd"/>
</svg>
