<svg width="94.117798" height="28.798828" viewBox="0 0 94.1178 28.7988" fill="none" xmlns="http://www.w3.org/2000/svg" xmlns:xlink="http://www.w3.org/1999/xlink">
	<desc>
			Created with Pixso.
	</desc>
	<defs/>
	<path id="2000+" d="M10.4409 28.3984Q10.0405 28.3984 9.73779 28.1055Q9.43506 27.8027 9.43506 27.4023L9.43506 8.35938L3.95654 12.5586Q3.59521 12.8418 3.21436 12.7637Q2.8335 12.6758 2.56006 12.3145L0.196777 9.23828Q-0.0473633 8.87695 0.0112305 8.45703Q0.0795898 8.03711 0.47998 7.80273L9.6792 0.673828Q9.91357 0.517578 10.1284 0.458984Q10.353 0.400391 10.6362 0.400391L15.6362 0.400391Q16.0757 0.400391 16.3491 0.683594Q16.6323 0.957031 16.6323 1.39648L16.6323 27.4023Q16.6323 27.8027 16.3491 28.1055Q16.0757 28.3984 15.6362 28.3984L10.4409 28.3984ZM32.0014 28.7988Q29.1205 28.7988 27.0209 27.9785Q24.9213 27.1582 23.5151 25.7227Q22.1186 24.2773 21.3959 22.3633Q20.6733 20.4395 20.5561 18.2422Q20.517 17.1582 20.4975 15.7812Q20.4779 14.3945 20.4975 12.9785Q20.517 11.5625 20.5561 10.4395Q20.6733 8.24219 21.4154 6.34766Q22.1576 4.44336 23.5737 3.02734Q24.9994 1.60156 27.099 0.800781Q29.1987 0 32.0014 0Q34.8334 0 36.933 0.800781Q39.0326 1.60156 40.4291 3.02734Q41.8354 4.44336 42.5971 6.34766Q43.3588 8.24219 43.476 10.4395Q43.5151 11.5625 43.5346 12.9785Q43.5541 14.3945 43.5346 15.7812Q43.5151 17.1582 43.476 18.2422Q43.3588 20.4395 42.6166 22.3633Q41.8744 24.2773 40.4975 25.7227Q39.1205 27.1582 37.0209 27.9785Q34.9213 28.7988 32.0014 28.7988ZM32.0014 22.998Q34.0815 22.998 35.019 21.6602Q35.9565 20.3223 35.9955 18.0371Q36.0737 16.875 36.0932 15.5957Q36.1127 14.3164 36.0932 13.0371Q36.0737 11.7578 35.9955 10.6738Q35.9565 8.47656 35.019 7.11914Q34.0815 5.76172 32.0014 5.72266Q29.9604 5.76172 29.0131 7.11914Q28.0756 8.47656 27.9975 10.6738Q27.9975 11.7578 27.9779 13.0371Q27.9584 14.3164 27.9779 15.5957Q27.9975 16.875 27.9975 18.0371Q28.0756 20.3223 29.0326 21.6602Q29.9994 22.998 32.0014 22.998ZM58.4014 28.7988Q55.5205 28.7988 53.4209 27.9785Q51.3213 27.1582 49.9151 25.7227Q48.5186 24.2773 47.7959 22.3633Q47.0733 20.4395 46.9561 18.2422Q46.917 17.1582 46.8975 15.7812Q46.8779 14.3945 46.8975 12.9785Q46.917 11.5625 46.9561 10.4395Q47.0733 8.24219 47.8154 6.34766Q48.5576 4.44336 49.9737 3.02734Q51.3994 1.60156 53.499 0.800781Q55.5987 0 58.4014 0Q61.2334 0 63.333 0.800781Q65.4326 1.60156 66.8291 3.02734Q68.2354 4.44336 68.9971 6.34766Q69.7588 8.24219 69.876 10.4395Q69.9151 11.5625 69.9346 12.9785Q69.9541 14.3945 69.9346 15.7812Q69.9151 17.1582 69.876 18.2422Q69.7588 20.4395 69.0166 22.3633Q68.2744 24.2773 66.8975 25.7227Q65.5205 27.1582 63.4209 27.9785Q61.3213 28.7988 58.4014 28.7988ZM58.4014 22.998Q60.4815 22.998 61.419 21.6602Q62.3565 20.3223 62.3955 18.0371Q62.4737 16.875 62.4932 15.5957Q62.5127 14.3164 62.4932 13.0371Q62.4737 11.7578 62.3955 10.6738Q62.3565 8.47656 61.419 7.11914Q60.4815 5.76172 58.4014 5.72266Q56.3604 5.76172 55.4131 7.11914Q54.4756 8.47656 54.3975 10.6738Q54.3975 11.7578 54.3779 13.0371Q54.3584 14.3164 54.3779 15.5957Q54.3975 16.875 54.3975 18.0371Q54.4756 20.3223 55.4326 21.6602Q56.3994 22.998 58.4014 22.998ZM81.7545 27.0801Q81.3151 27.0801 81.0319 26.7773Q80.7584 26.4746 80.7584 26.0742L80.7584 18.7598L73.6393 18.7598Q73.1998 18.7598 72.8971 18.4863Q72.5944 18.2031 72.5944 17.7539L72.5944 14.834Q72.5944 14.3945 72.8971 14.1016Q73.1998 13.7988 73.6393 13.7988L80.7584 13.7988L80.7584 6.71875Q80.7584 6.2793 81.0319 6.00586Q81.3151 5.72266 81.7545 5.72266L85.0358 5.72266Q85.4361 5.72266 85.7389 6.00586Q86.0416 6.2793 86.0416 6.71875L86.0416 13.7988L93.1217 13.7988Q93.5611 13.7988 93.8346 14.1016Q94.1178 14.3945 94.1178 14.834L94.1178 17.7539Q94.1178 18.2031 93.8346 18.4863Q93.5611 18.7598 93.1217 18.7598L86.0416 18.7598L86.0416 26.0742Q86.0416 26.4746 85.7389 26.7773Q85.4361 27.0801 85.0358 27.0801L81.7545 27.0801Z" fill="#D27722" fill-opacity="1.000000" fill-rule="evenodd"/>
</svg>
