<svg width="72.840210" height="28.916016" viewBox="0 0 72.8402 28.916" fill="none" xmlns="http://www.w3.org/2000/svg" xmlns:xlink="http://www.w3.org/1999/xlink">
	<desc>
			Created with Pixso.
	</desc>
	<defs/>
	<path id="2000+" d="M1.03516 28.5156Q0.595703 28.5156 0.292969 28.2227Q0 27.9199 0 27.5195L0 24.6777Q0 24.3945 0.15625 23.8184Q0.322266 23.2324 0.996094 22.7148L5.15625 18.6328Q8.35938 16.1914 10.4199 14.4922Q12.4805 12.793 13.4766 11.4746Q14.4824 10.1562 14.4824 8.99414Q14.4824 7.63672 13.7793 6.73828Q13.0762 5.83984 11.3574 5.83984Q10.1953 5.83984 9.43359 6.33789Q8.68164 6.83594 8.26172 7.63672Q7.8418 8.4375 7.67578 9.27734Q7.51953 9.79492 7.13867 10Q6.75781 10.1953 6.31836 10.1953L1.31836 10.1953Q0.957031 10.1953 0.712891 9.96094Q0.478516 9.7168 0.478516 9.35547Q0.517578 7.43164 1.29883 5.73242Q2.08008 4.0332 3.49609 2.75391Q4.92188 1.47461 6.89453 0.742188Q8.87695 0 11.3574 0Q14.7559 0 17.1387 1.10352Q19.5215 2.19727 20.7617 4.14062Q22.002 6.07422 22.002 8.67188Q22.002 10.6348 21.1426 12.334Q20.2832 14.0332 18.7012 15.5762Q17.1191 17.1191 14.9609 18.7598L11.2793 22.4805L21.5625 22.4805Q22.002 22.4805 22.2949 22.7637Q22.5977 23.0371 22.5977 23.4766L22.5977 27.5195Q22.5977 27.9199 22.2949 28.2227Q22.002 28.5156 21.5625 28.5156L1.03516 28.5156ZM37.1238 28.916Q34.243 28.916 32.1434 28.0957Q30.0438 27.2754 28.6375 25.8398Q27.241 24.3945 26.5184 22.4805Q25.7957 20.5566 25.6785 18.3594Q25.6395 17.2754 25.6199 15.8984Q25.6004 14.5117 25.6199 13.0957Q25.6395 11.6797 25.6785 10.5566Q25.7957 8.35938 26.5379 6.46484Q27.2801 4.56055 28.6961 3.14453Q30.1219 1.71875 32.2215 0.917969Q34.3211 0.117188 37.1238 0.117188Q39.9559 0.117188 42.0555 0.917969Q44.1551 1.71875 45.5516 3.14453Q46.9578 4.56055 47.7195 6.46484Q48.4813 8.35938 48.5984 10.5566Q48.6375 11.6797 48.657 13.0957Q48.6766 14.5117 48.657 15.8984Q48.6375 17.2754 48.5984 18.3594Q48.4813 20.5566 47.7391 22.4805Q46.9969 24.3945 45.6199 25.8398Q44.243 27.2754 42.1434 28.0957Q40.0438 28.916 37.1238 28.916ZM37.1238 23.1152Q39.2039 23.1152 40.1414 21.7773Q41.0789 20.4395 41.118 18.1543Q41.1961 16.9922 41.2156 15.7129Q41.2352 14.4336 41.2156 13.1543Q41.1961 11.875 41.118 10.791Q41.0789 8.59375 40.1414 7.23633Q39.2039 5.87891 37.1238 5.83984Q35.0828 5.87891 34.1355 7.23633Q33.198 8.59375 33.1199 10.791Q33.1199 11.875 33.1004 13.1543Q33.0809 14.4336 33.1004 15.7129Q33.1199 16.9922 33.1199 18.1543Q33.198 20.4395 34.1551 21.7773Q35.1219 23.1152 37.1238 23.1152ZM60.477 27.1973Q60.0375 27.1973 59.7543 26.8945Q59.4809 26.5918 59.4809 26.1914L59.4809 18.877L52.3617 18.877Q51.9223 18.877 51.6195 18.6035Q51.3168 18.3203 51.3168 17.8711L51.3168 14.9512Q51.3168 14.5117 51.6195 14.2188Q51.9223 13.916 52.3617 13.916L59.4809 13.916L59.4809 6.83594Q59.4809 6.39648 59.7543 6.12305Q60.0375 5.83984 60.477 5.83984L63.7582 5.83984Q64.1586 5.83984 64.4613 6.12305Q64.7641 6.39648 64.7641 6.83594L64.7641 13.916L71.8441 13.916Q72.2836 13.916 72.557 14.2188Q72.8402 14.5117 72.8402 14.9512L72.8402 17.8711Q72.8402 18.3203 72.557 18.6035Q72.2836 18.877 71.8441 18.877L64.7641 18.877L64.7641 26.1914Q64.7641 26.5918 64.4613 26.8945Q64.1586 27.1973 63.7582 27.1973L60.477 27.1973Z" fill="#D27722" fill-opacity="1.000000" fill-rule="evenodd"/>
</svg>
