<svg width="33.000000" height="32.000000" viewBox="0 0 33 32" fill="none" xmlns="http://www.w3.org/2000/svg" xmlns:xlink="http://www.w3.org/1999/xlink">
	<desc>
			Created with Pixso.
	</desc>
	<defs>
		<clipPath id="clip2_2319">
			<rect id="IMAGE" width="33.000000" height="32.000000" fill="white" fill-opacity="0"/>
		</clipPath>
	</defs>
	<g clip-path="url(#clip2_2319)">
		<path id="Vector" d="M23.5436 10.6792C24.5792 11.7729 25.1351 13 25.1351 14.9888C25.1351 18.4888 22.6649 21.626 19.0726 23.1768L18.1747 21.7988C21.5278 19.9951 22.1833 17.6538 22.4446 16.1782C21.9048 16.4561 21.198 16.5532 20.5052 16.4888C18.6915 16.3218 17.2618 14.8408 17.2618 13C17.2618 12.0718 17.6326 11.1816 18.2925 10.5249C18.9524 9.86865 19.8475 9.5 20.7807 9.5C21.8595 9.5 22.8911 9.99023 23.5436 10.6792ZM13.4894 10.6792C14.5251 11.7729 15.0811 13 15.0811 14.9888C15.0811 18.4888 12.6108 21.626 9.01849 23.1768L8.12067 21.7988C11.4737 19.9951 12.1292 17.6538 12.3906 16.1782C11.8506 16.4561 11.1439 16.5532 10.4512 16.4888C8.63739 16.3218 7.20874 14.8408 7.20874 13C7.20874 12.0718 7.57947 11.1816 8.23938 10.5249C8.89935 9.86865 9.79437 9.5 10.7277 9.5C11.8065 9.5 12.838 9.99023 13.4905 10.6792L13.4894 10.6792Z" fill="#CBC7B5" fill-opacity="1.000000" fill-rule="nonzero"/>
	</g>
</svg>
