<svg width="33.000000" height="32.000000" viewBox="0 0 33 32" fill="none" xmlns="http://www.w3.org/2000/svg" xmlns:xlink="http://www.w3.org/1999/xlink">
	<desc>
			Created with Pixso.
	</desc>
	<defs>
		<clipPath id="clip2_2325">
			<rect id="IMAGE" width="33.000000" height="32.000000" fill="white" fill-opacity="0"/>
		</clipPath>
	</defs>
	<g clip-path="url(#clip2_2325)">
		<path id="Vector" d="M8.62939 21.3213C7.59381 20.2271 7.03784 19 7.03784 17.0112C7.03784 13.5112 9.50812 10.374 13.1004 8.82324L13.9983 10.2012C10.6452 12.0054 9.98969 14.3462 9.72833 15.8223C10.2682 15.5444 10.975 15.4473 11.6677 15.5112C13.4815 15.6782 14.9112 17.1592 14.9112 19C14.9112 19.9287 14.5404 20.8188 13.8805 21.4751C13.2206 22.1313 12.3255 22.5 11.3923 22.5C10.3135 22.5 9.28192 22.0103 8.62939 21.3213ZM18.6835 21.3213C17.6479 20.2271 17.0919 19 17.0919 17.0112C17.0919 13.5112 19.5622 10.374 23.1545 8.82324L24.0523 10.2012C20.6993 12.0054 20.0438 14.3462 19.7824 15.8223C20.3223 15.5444 21.0291 15.4473 21.7218 15.5112C23.5355 15.6782 24.9652 17.1592 24.9652 19C24.9652 19.9287 24.5945 20.8188 23.9346 21.4751C23.2746 22.1313 22.3796 22.5 21.4463 22.5C20.3675 22.5 19.336 22.0103 18.6835 21.3213Z" fill="#CBC7B5" fill-opacity="1.000000" fill-rule="nonzero"/>
	</g>
</svg>
