<svg width="32.000000" height="32.000000" viewBox="0 0 32 32" fill="none" xmlns="http://www.w3.org/2000/svg" xmlns:xlink="http://www.w3.org/1999/xlink">
	<desc>
			Created with Pixso.
	</desc>
	<defs>
		<clipPath id="clip2_2254">
			<rect id="IMAGE" width="32.000000" height="32.000000" fill="white" fill-opacity="0"/>
		</clipPath>
	</defs>
	<g clip-path="url(#clip2_2254)">
		<path id="Vector" d="M17.3004 28.25L14.6996 28.25C14.3544 28.25 14.0746 28.5298 14.0746 28.875C14.0746 29.2202 14.3544 29.5 14.6996 29.5L17.3004 29.5C17.6456 29.5 17.9254 29.2202 17.9254 28.875C17.9254 28.5298 17.6456 28.25 17.3004 28.25Z" fill="#9F9B8D" fill-opacity="1.000000" fill-rule="nonzero"/>
		<path id="Vector" d="M28.5 5L24.75 5L24.75 3.64258C25.4774 3.38428 26 2.68994 26 1.875C26 0.841309 25.1589 0 24.125 0L7.875 0C6.84113 0 6 0.841309 6 1.875C6 2.68994 6.52256 3.38428 7.25 3.64258L7.25 5L3.5 5C3.15481 5 2.875 5.27979 2.875 5.625L2.875 10C2.875 12.7573 5.118 15 7.875 15L8.40344 15C8.52356 15.2095 8.65195 15.415 8.79012 15.6157C9.6748 16.8999 10.8688 17.915 12.2633 18.5776C12.2548 18.6494 12.25 18.7227 12.25 18.7969C12.25 19.6729 12.8536 20.4097 13.6664 20.6152C12.9154 23.1172 11.5809 25.75 10 25.75L8.5 25.75C8.18481 25.75 7.91895 25.9849 7.87981 26.2974L7.25481 31.2974C7.23256 31.4756 7.28781 31.6543 7.40643 31.7886C7.52505 31.9229 7.69576 32 7.875 32L24.125 32C24.3043 32 24.4749 31.9233 24.5936 31.7886C24.7122 31.6543 24.7674 31.4751 24.7452 31.2974L24.1202 26.2974C24.0811 25.9849 23.8153 25.75 23.5 25.75L22 25.75C21.0432 25.75 20.2348 24.7451 19.7251 23.9023C19.0701 22.8193 18.6126 21.5435 18.3337 20.6147C19.1466 20.4097 19.75 19.6724 19.75 18.7969C19.75 18.7227 19.7452 18.6494 19.7367 18.5776C21.1314 17.915 22.3256 16.8994 23.2103 15.6152C23.3483 15.4146 23.4766 15.2095 23.5966 15L24.125 15C26.882 15 29.125 12.7573 29.125 10L29.125 5.625C29.125 5.27979 28.8452 5 28.5 5ZM4.125 10L4.125 6.25L7.25 6.25L7.25 10.6719C7.25 11.7334 7.4425 12.7715 7.81232 13.7485C5.77344 13.7148 4.125 12.0469 4.125 10ZM23.417 30.75L8.58301 30.75L9.05176 27L22.9482 27L23.417 30.75ZM19.5361 25.75L12.4639 25.75C12.7676 25.417 13.0605 25.0186 13.3418 24.5537C14.1406 23.2344 14.6651 21.6802 14.9519 20.6719L17.0482 20.6719C17.3352 21.6812 17.8586 23.2319 18.6554 24.5493C18.9376 25.0156 19.2314 25.416 19.5361 25.75ZM17.875 19.4219L14.125 19.4219C13.7804 19.4219 13.5 19.1416 13.5 18.7969C13.5 18.4521 13.7804 18.1719 14.125 18.1719L17.875 18.1719C18.2196 18.1719 18.5 18.4521 18.5 18.7969C18.5 19.1416 18.2196 19.4219 17.875 19.4219ZM19.1842 17.4565C18.8461 17.126 18.384 16.9219 17.875 16.9219L14.125 16.9219C13.616 16.9219 13.154 17.126 12.8158 17.4565C10.1807 16.2158 8.5 13.5977 8.5 10.6719L8.5 3.75L13.1873 3.75C13.5325 3.75 13.8123 3.47021 13.8123 3.125C13.8123 2.77979 13.5325 2.5 13.1873 2.5L7.875 2.5C7.53038 2.5 7.25 2.21973 7.25 1.875C7.25 1.53027 7.53038 1.25 7.875 1.25L24.125 1.25C24.4696 1.25 24.75 1.53027 24.75 1.875C24.75 2.21973 24.4696 2.5 24.125 2.5L18.8123 2.5C18.4671 2.5 18.1873 2.77979 18.1873 3.125C18.1873 3.47021 18.4671 3.75 18.8123 3.75L23.5 3.75L23.5 10.6719C23.5 13.5972 21.8192 16.2158 19.1842 17.4565ZM27.875 10C27.875 12.0469 26.2266 13.7148 24.1877 13.7485C24.5575 12.7715 24.75 11.7334 24.75 10.6719L24.75 6.25L27.875 6.25L27.875 10Z" fill="#9F9B8D" fill-opacity="1.000000" fill-rule="nonzero"/>
		<path id="Vector" d="M19.1931 8.1499L17.7914 7.90137L17.0952 6.62109C17.0952 6.62109 17.0952 6.62061 17.0951 6.62061C16.9783 6.40625 16.8024 6.23193 16.5864 6.1167C16.2924 5.95996 15.9549 5.92676 15.6361 6.02393C15.3173 6.12109 15.0554 6.33643 14.8984 6.63037L14.2292 7.88672L12.8234 8.14795C12.5715 8.18848 12.3412 8.30322 12.1566 8.48096C11.9163 8.71191 11.7804 9.02295 11.7739 9.35645C11.7674 9.68994 11.8912 10.0059 12.1229 10.2466L13.1116 11.272L12.9302 12.6548C12.8816 12.9189 12.9179 13.1855 13.0358 13.4277C13.1819 13.728 13.4362 13.9531 13.7517 14.062C13.8853 14.1079 14.0231 14.1309 14.1604 14.1309C14.3473 14.1309 14.5333 14.0884 14.7063 14.0044L15.9854 13.3813L17.3018 14.0088C17.5216 14.1138 17.7667 14.1514 18.0106 14.1172C18.341 14.0718 18.6337 13.8999 18.8351 13.6343C19.0363 13.3682 19.122 13.04 19.0762 12.7085L18.8791 11.2983L19.8457 10.2788C20.0368 10.0942 20.1618 9.8584 20.2077 9.59521C20.3261 8.9165 19.8703 8.26807 19.1931 8.1499ZM18.9496 9.40674L17.7648 10.6567C17.6339 10.7944 17.5731 10.9849 17.5994 11.1729L17.8397 12.8804L16.2511 12.1235C16.0794 12.042 15.8798 12.0425 15.7087 12.126L14.1596 12.8809C14.1626 12.8662 14.1651 12.8511 14.1671 12.8364L14.3901 11.1362C14.4148 10.9478 14.3523 10.7578 14.2203 10.6211L13.0217 9.38232C13.0287 9.38135 13.0358 9.37988 13.0428 9.37891L14.7533 9.06104C14.9403 9.02588 15.1013 8.9082 15.1907 8.74023L15.9982 7.22021L16.8368 8.76318C16.9276 8.93018 17.0896 9.04688 17.2769 9.08008L18.9767 9.37988C18.9674 9.38867 18.9583 9.39746 18.9496 9.40674Z" fill="#9F9B8D" fill-opacity="1.000000" fill-rule="nonzero"/>
		<path id="Vector" d="M16 3.75C16.3452 3.75 16.625 3.47021 16.625 3.125C16.625 2.77979 16.3452 2.5 16 2.5L15.9996 2.5C15.6544 2.5 15.3748 2.77979 15.3748 3.125C15.3748 3.47021 15.6548 3.75 16 3.75Z" fill="#9F9B8D" fill-opacity="1.000000" fill-rule="nonzero"/>
	</g>
</svg>
