<svg width="134.000000" height="134.000000" viewBox="0 0 134 134" fill="none" xmlns="http://www.w3.org/2000/svg" xmlns:xlink="http://www.w3.org/1999/xlink">
	<desc>
			Created with Pixso.
	</desc>
	<defs>
		<clipPath id="clip2_2241">
			<rect id="IMAGE" width="134.000000" height="134.000000" fill="white" fill-opacity="0"/>
		</clipPath>
	</defs>
	<g clip-path="url(#clip2_2241)">
		<path id="Vector" d="M67 0L72.8172 34.0088L89.9153 4.04053L83.75 37.9883L110.067 15.6748L92.6625 45.4668L125.024 33.5L98.4797 55.5425L132.982 55.3657L100.5 67L132.982 78.6343L98.4797 78.4575L125.024 100.5L92.6625 88.5332L110.067 118.325L83.75 96.0117L89.9153 129.959L72.8172 99.9912L67 134L61.1828 99.9912L44.0847 129.959L50.25 96.0117L23.9333 118.325L41.3375 88.5332L8.97632 100.5L35.5203 78.4575L1.01788 78.6343L33.5 67L1.01788 55.3657L35.5203 55.5425L8.97632 33.5L41.3375 45.4668L23.9333 15.6748L50.25 37.9883L44.0847 4.04053L61.1828 34.0088L67 0Z" fill="#ECE8D9" fill-opacity="1.000000" fill-rule="nonzero"/>
	</g>
</svg>
