<svg width="255.749023" height="36.468750" viewBox="0 0 255.749 36.4688" fill="none" xmlns="http://www.w3.org/2000/svg" xmlns:xlink="http://www.w3.org/1999/xlink">
	<desc>
			Created with Pixso.
	</desc>
	<defs/>
	<path id="Our Awards" d="M27.4453 20.0391Q27.4453 25.0547 25.7578 28.793Q24.0703 32.5312 20.9765 34.5Q17.8828 36.4688 13.7578 36.4688Q9.72653 36.4688 6.60934 34.4883Q3.49216 32.5078 1.7695 28.8398Q0.0468445 25.1719 -3.05176e-05 20.3438L-3.05176e-05 17.8828Q-3.05176e-05 12.9609 1.71091 9.1875Q3.42184 5.41406 6.55075 3.41016Q9.67966 1.40625 13.7109 1.40625Q17.8125 1.40625 20.9414 3.38672Q24.0703 5.36719 25.7578 9.12891Q27.4453 12.8906 27.4453 17.8828L27.4453 20.0391ZM22.9687 17.8359Q22.9687 11.7656 20.5312 8.51953Q18.0937 5.27344 13.7109 5.27344Q9.44528 5.27344 6.99606 8.51953Q4.54684 11.7656 4.47653 17.5312L4.47653 20.0391Q4.47653 25.9219 6.94919 29.2852Q9.42184 32.6484 13.7578 32.6484Q18.1172 32.6484 20.5078 29.4727Q22.8984 26.2969 22.9687 20.3672L22.9687 17.8359ZM50.6118 33.4922Q48.0806 36.4688 43.1822 36.4688Q39.1275 36.4688 37.0064 34.1133Q34.8853 31.7578 34.8618 27.1406L34.8618 10.6406L39.1978 10.6406L39.1978 27.0234Q39.1978 32.7891 43.8853 32.7891Q48.854 32.7891 50.4947 29.0859L50.4947 10.6406L54.8306 10.6406L54.8306 36L50.7056 36L50.6118 33.4922ZM75.1143 14.5312Q74.13 14.3672 72.9815 14.3672Q68.7159 14.3672 67.1925 18L67.1925 36L62.8565 36L62.8565 10.6406L67.0753 10.6406L67.1456 13.5703Q69.2784 10.1719 73.1925 10.1719Q74.4581 10.1719 75.1143 10.5L75.1143 14.5312ZM113.385 27.0938L99.0881 27.0938L95.8772 36L91.2365 36L104.268 1.875L108.205 1.875L121.26 36L116.643 36L113.385 27.0938ZM100.447 23.3906L112.049 23.3906L106.237 7.42969L100.447 23.3906ZM148.294 30.0234L153.169 10.6406L157.505 10.6406L150.122 36L146.606 36L140.442 16.7812L134.442 36L130.927 36L123.567 10.6406L127.88 10.6406L132.872 29.625L138.778 10.6406L142.27 10.6406L148.294 30.0234ZM179.007 36Q178.632 35.25 178.398 33.3281Q175.374 36.4688 171.179 36.4688Q167.429 36.4688 165.027 34.3477Q162.624 32.2266 162.624 28.9688Q162.624 25.0078 165.636 22.8164Q168.648 20.625 174.109 20.625L178.327 20.625L178.327 18.6328Q178.327 16.3594 176.968 15.0117Q175.609 13.6641 172.96 13.6641Q170.64 13.6641 169.07 14.8359Q167.499 16.0078 167.499 17.6719L163.14 17.6719Q163.14 15.7734 164.488 14.0039Q165.835 12.2344 168.144 11.2031Q170.452 10.1719 173.218 10.1719Q177.601 10.1719 180.085 12.3633Q182.57 14.5547 182.663 18.3984L182.663 30.0703Q182.663 33.5625 183.554 35.625L183.554 36L179.007 36ZM171.812 32.6953Q173.851 32.6953 175.679 31.6406Q177.507 30.5859 178.327 28.8984L178.327 23.6953L174.929 23.6953Q166.96 23.6953 166.96 28.3594Q166.96 30.3984 168.32 31.5469Q169.679 32.6953 171.812 32.6953ZM203.158 14.5312Q202.174 14.3672 201.025 14.3672Q196.76 14.3672 195.236 18L195.236 36L190.9 36L190.9 10.6406L195.119 10.6406L195.189 13.5703Q197.322 10.1719 201.236 10.1719Q202.502 10.1719 203.158 10.5L203.158 14.5312ZM207.082 23.1094Q207.082 17.2734 209.848 13.7227Q212.614 10.1719 217.09 10.1719Q221.543 10.1719 224.145 13.2188L224.145 0L228.481 0L228.481 36L224.497 36L224.286 33.2812Q221.684 36.4688 217.043 36.4688Q212.637 36.4688 209.86 32.8594Q207.082 29.25 207.082 23.4375L207.082 23.1094ZM211.418 23.6016Q211.418 27.9141 213.2 30.3516Q214.981 32.7891 218.122 32.7891Q222.247 32.7891 224.145 29.0859L224.145 17.4375Q222.2 13.8516 218.168 13.8516Q214.981 13.8516 213.2 16.3125Q211.418 18.7734 211.418 23.6016ZM251.413 29.2734Q251.413 27.5156 250.089 26.543Q248.765 25.5703 245.472 24.8672Q242.179 24.1641 240.245 23.1797Q238.312 22.1953 237.386 20.8359Q236.46 19.4766 236.46 17.6016Q236.46 14.4844 239.097 12.3281Q241.733 10.1719 245.835 10.1719Q250.147 10.1719 252.831 12.3984Q255.515 14.625 255.515 18.0938L251.155 18.0938Q251.155 16.3125 249.644 15.0234Q248.132 13.7344 245.835 13.7344Q243.468 13.7344 242.132 14.7656Q240.796 15.7969 240.796 17.4609Q240.796 19.0312 242.038 19.8281Q243.28 20.625 246.526 21.3516Q249.772 22.0781 251.788 23.0859Q253.804 24.0938 254.776 25.5117Q255.749 26.9297 255.749 28.9688Q255.749 32.3672 253.03 34.418Q250.312 36.4688 245.976 36.4688Q242.929 36.4688 240.585 35.3906Q238.241 34.3125 236.917 32.3789Q235.593 30.4453 235.593 28.1953L239.929 28.1953Q240.046 30.375 241.675 31.6523Q243.304 32.9297 245.976 32.9297Q248.437 32.9297 249.925 31.9336Q251.413 30.9375 251.413 29.2734Z" fill="#102226" fill-opacity="1.000000" fill-rule="evenodd"/>
</svg>
