<svg width="172.341248" height="175.000000" viewBox="0 0 172.341 175" fill="none" xmlns="http://www.w3.org/2000/svg" xmlns:xlink="http://www.w3.org/1999/xlink">
	<desc>
			Created with Pixso.
	</desc>
	<defs/>
	<path id="Vector" d="M86.1707 0L93.7678 44.4148L116.097 5.27686L108.046 49.6113L142.415 20.4709L119.685 59.3782L161.949 43.75L127.282 72.5366L172.341 72.3057L129.921 87.5L172.341 102.694L127.282 102.463L161.949 131.25L119.685 115.622L142.415 154.529L108.046 125.389L116.097 169.723L93.7678 130.585L86.1707 175L78.5736 130.585L56.244 169.723L64.2957 125.389L29.9268 154.529L52.6562 115.622L10.3935 131.25L45.0591 102.463L0 102.694L42.4207 87.5L0 72.3057L45.0591 72.5366L10.3935 43.75L52.6562 59.3782L29.9268 20.4709L64.2957 49.6113L56.244 5.27686L78.5736 44.4148L86.1707 0Z" fill="#ECE8D9" fill-opacity="1.000000" fill-rule="nonzero"/>
</svg>
