<svg width="122.116089" height="124.000000" viewBox="0 0 122.116 124" fill="none" xmlns="http://www.w3.org/2000/svg" xmlns:xlink="http://www.w3.org/1999/xlink">
	<desc>
			Created with Pixso.
	</desc>
	<defs/>
	<path id="Vector" d="M61.0581 0L66.4412 31.4712L82.2633 3.73926L76.5581 35.1533L100.911 14.5054L84.8055 42.0737L114.752 31L90.1886 51.3975L122.116 51.2339L92.0581 62L122.116 72.7661L90.1886 72.6025L114.752 93L84.8055 81.9263L100.911 109.495L76.5581 88.8467L82.2633 120.261L66.4412 92.5288L61.0581 124L55.675 92.5288L39.8529 120.261L45.5581 88.8467L21.2053 109.495L37.3107 81.9263L7.3645 93L31.9276 72.6025L0 72.7661L30.0581 62L0 51.2339L31.9276 51.3975L7.3645 31L37.3107 42.0737L21.2053 14.5054L45.5581 35.1533L39.8529 3.73926L55.675 31.4712L61.0581 0Z" fill="#ECE8D9" fill-opacity="1.000000" fill-rule="nonzero"/>
</svg>
