<svg width="126.055313" height="128.000000" viewBox="0 0 126.055 128" fill="none" xmlns="http://www.w3.org/2000/svg" xmlns:xlink="http://www.w3.org/1999/xlink">
	<desc>
			Created with Pixso.
	</desc>
	<defs/>
	<path id="Vector" d="M63.0277 0L68.5845 32.4863L84.9169 3.85986L79.0277 36.2871L104.166 14.9731L87.5412 43.4307L118.454 32L93.0979 53.0552L126.055 52.8867L95.0277 64L126.055 75.1133L93.0979 74.9448L118.454 96L87.5412 84.5693L104.166 113.027L79.0277 91.7129L84.9169 124.141L68.5845 95.5137L63.0277 128L57.4709 95.5137L41.1385 124.141L47.0277 91.7129L21.8893 113.027L38.5143 84.5693L7.60207 96L32.9575 74.9448L0 75.1133L31.0277 64L0 52.8867L32.9575 53.0552L7.60207 32L38.5143 43.4307L21.8893 14.9731L47.0277 36.2871L41.1385 3.85986L57.4709 32.4863L63.0277 0Z" fill="#ECE8D9" fill-opacity="1.000000" fill-rule="nonzero"/>
</svg>
